<?xml version="1.0" encoding="UTF-8"?>
<svg xmlns="http://www.w3.org/2000/svg" viewBox="0 0 560 140" role="img" aria-labelledby="title desc">
  <title id="title">台灣電力公司</title>
  <desc id="desc">左側藍紅圓形電力標誌，右側為中文與英文公司名稱</desc>
  <rect width="560" height="140" fill="#ffffff"/>

  <g transform="translate(18,18)">
    <circle cx="52" cy="52" r="44" fill="#ffffff" stroke="#0c52a5" stroke-width="4"/>
    <circle cx="52" cy="52" r="35" fill="none" stroke="#0c52a5" stroke-width="2.5"/>

    <path d="M52 16 L63 36 L41 36 Z" fill="#0c52a5"/>
    <path d="M52 16 L45 31 L59 31 Z" fill="#dd2d2d"/>
    <path d="M43 38 L52 59 L61 38 Z" fill="#0c52a5"/>
    <path d="M52 13 L56 18 L52 24 L48 18 Z" fill="#dd2d2d"/>

    <path d="M22 59 C30 72, 40 79, 52 82 C64 79, 74 72, 82 59" fill="none" stroke="#0c52a5" stroke-width="3.2" stroke-linecap="round"/>
    <path d="M18 68 C29 83, 40 90, 52 93 C64 90, 75 83, 86 68" fill="none" stroke="#dd2d2d" stroke-width="2.6" stroke-linecap="round"/>

    <path d="M52 29 L52 72" stroke="#0c52a5" stroke-width="2.7" stroke-linecap="round"/>
    <path d="M38 39 L52 52 L66 39" fill="none" stroke="#dd2d2d" stroke-width="2.8" stroke-linecap="round" stroke-linejoin="round"/>

    <path d="M26 27 L40 38 L32 47 L18 36 Z" fill="#0c52a5" opacity="0.9"/>
    <path d="M78 27 L64 38 L72 47 L86 36 Z" fill="#0c52a5" opacity="0.9"/>

    <circle cx="52" cy="52" r="4.5" fill="#dd2d2d"/>
  </g>

  <g transform="translate(142,15)">
    <text x="0" y="60" fill="#111111" font-size="34" font-weight="700" font-family="'Yuanti TC','Microsoft JhengHei','PingFang TC','Noto Sans TC','serif'" letter-spacing="3">台灣電力公司</text>
    <text x="6" y="94" fill="#1f1f1f" font-size="18" font-weight="700" font-family="Arial, Helvetica, sans-serif" letter-spacing="1.2">TAIWAN POWER COMPANY</text>
  </g>
</svg>
